<svg width="629" height="84" viewBox="0 0 629 84" fill="none" xmlns="http://www.w3.org/2000/svg">
<path d="M15.1167 82.8926H0V23.5887H3.65458L8.6381 30.621C11.0745 28.4061 13.8431 26.708 16.944 25.5267C20.0448 24.3085 23.2564 23.6994 26.5788 23.6994H39.9235V38.7607H26.5788C24.9914 38.7607 23.4964 39.056 22.0936 39.6467C20.6908 40.2373 19.4726 41.0494 18.439 42.0831C17.4054 43.1167 16.5933 44.3349 16.0026 45.7376C15.412 47.1404 15.1167 48.6355 15.1167 50.2228V82.8926Z" fill="#FF8A8A"/>
<path d="M64.3339 68.385C64.9246 68.5695 65.5152 68.6987 66.1058 68.7726C66.6965 68.8095 67.2871 68.8279 67.8778 68.8279C69.3544 68.8279 70.7756 68.6249 72.1414 68.2189C73.5073 67.8128 74.7809 67.2406 75.9621 66.5023C77.1803 65.7271 78.2509 64.8042 79.1737 63.7337C80.1335 62.6262 80.9087 61.408 81.4994 60.0791L92.5739 71.209C91.1711 73.2024 89.5468 74.9927 87.7011 76.5801C85.8923 78.1674 83.9173 79.5148 81.7762 80.6223C79.6721 81.7297 77.4387 82.5603 75.0762 83.114C72.7505 83.7047 70.3511 84 67.8778 84C63.7064 84 59.7749 83.2248 56.0834 81.6744C52.4289 80.1239 49.2172 77.9644 46.4486 75.1958C43.7169 72.4272 41.5574 69.1417 39.97 65.3395C38.3827 61.5003 37.589 57.292 37.589 52.7146C37.589 48.0264 38.3827 43.7442 39.97 39.8682C41.5574 35.9921 43.7169 32.6882 46.4486 29.9565C49.2172 27.2248 52.4289 25.1022 56.0834 23.5887C59.7749 22.0751 63.7064 21.3184 67.8778 21.3184C70.3511 21.3184 72.769 21.6137 75.1316 22.2044C77.4941 22.795 79.7275 23.644 81.8316 24.7515C83.9727 25.8589 85.9661 27.2248 87.8118 28.849C89.6576 30.4364 91.2818 32.2268 92.6846 34.2202L64.3339 68.385ZM72.0861 37.2103C71.3847 36.9519 70.6833 36.7858 69.9819 36.7119C69.3174 36.6381 68.6161 36.6012 67.8778 36.6012C65.8105 36.6012 63.854 36.9888 62.0083 37.764C60.1995 38.5023 58.6121 39.5728 57.2463 40.9756C55.9173 42.3784 54.8652 44.0765 54.09 46.0699C53.3148 48.0264 52.9272 50.2413 52.9272 52.7146C52.9272 53.2683 52.9457 53.8958 52.9826 54.5972C53.0564 55.2986 53.1487 56.0185 53.2594 56.7568C53.4071 57.4581 53.5732 58.1411 53.7578 58.8055C53.9424 59.47 54.1823 60.0606 54.4776 60.5775L72.0861 37.2103Z" fill="#FF8A8A"/>
<path d="M146.609 35.383L135.534 46.5129C134.98 44.9624 134.224 43.5781 133.264 42.3599C132.304 41.1048 131.215 40.0527 129.997 39.2037C128.816 38.3546 127.523 37.7086 126.121 37.2657C124.718 36.8227 123.278 36.6012 121.802 36.6012C119.734 36.6012 117.778 37.0257 115.932 37.8748C114.123 38.7238 112.536 39.9235 111.17 41.474C109.841 42.9875 108.789 44.7963 108.014 46.9005C107.239 49.0046 106.851 51.3303 106.851 53.8774C106.851 55.9446 107.239 57.8827 108.014 59.6915C108.789 61.5003 109.841 63.0877 111.17 64.4535C112.536 65.8194 114.123 66.8899 115.932 67.6651C117.778 68.4403 119.734 68.8279 121.802 68.8279C123.278 68.8279 124.699 68.6249 126.065 68.2189C127.431 67.8128 128.705 67.2406 129.886 66.5023C131.104 65.7271 132.175 64.8042 133.098 63.7337C134.057 62.6262 134.833 61.408 135.423 60.0791L146.498 71.209C145.095 73.2024 143.471 74.9927 141.625 76.5801C139.816 78.1674 137.841 79.5148 135.7 80.6223C133.596 81.7297 131.363 82.5603 129 83.114C126.674 83.7047 124.275 84 121.802 84C117.63 84 113.699 83.2248 110.007 81.6744C106.353 80.087 103.141 77.9275 100.373 75.1958C97.6408 72.4641 95.4813 69.2709 93.894 65.6163C92.3066 61.9618 91.5129 58.0488 91.5129 53.8774C91.5129 49.3368 92.3066 45.0916 93.894 41.1417C95.4813 37.1918 97.6408 33.7587 100.373 30.8425C103.141 27.8893 106.353 25.5636 110.007 23.8655C113.699 22.1674 117.63 21.3184 121.802 21.3184C124.275 21.3184 126.693 21.6322 129.055 22.2597C131.455 22.8873 133.725 23.8102 135.866 25.0283C138.044 26.2096 140.038 27.6678 141.846 29.4028C143.692 31.1378 145.28 33.1312 146.609 35.383Z" fill="#FF8A8A"/>
<path d="M205.35 52.7146C205.35 57.1444 204.556 61.2788 202.969 65.118C201.381 68.9202 199.222 72.2241 196.49 75.0297C193.759 77.7983 190.547 79.9947 186.855 81.619C183.201 83.2063 179.269 84 175.061 84C170.89 84 166.958 83.2063 163.267 81.619C159.612 79.9947 156.401 77.7983 153.632 75.0297C150.9 72.2241 148.741 68.9202 147.153 65.118C145.566 61.2788 144.772 57.1444 144.772 52.7146C144.772 48.2109 145.566 44.0396 147.153 40.2004C148.741 36.3612 150.9 33.0574 153.632 30.2887C156.401 27.4832 159.612 25.2868 163.267 23.6994C166.958 22.1121 170.89 21.3184 175.061 21.3184C179.269 21.3184 183.201 22.0751 186.855 23.5887C190.547 25.0653 193.759 27.1879 196.49 29.9565C199.222 32.6882 201.381 35.9921 202.969 39.8682C204.556 43.7073 205.35 47.9895 205.35 52.7146ZM190.122 52.7146C190.122 50.2782 189.716 48.0817 188.904 46.1252C188.129 44.1318 187.058 42.4338 185.693 41.031C184.327 39.5913 182.721 38.5023 180.875 37.764C179.066 36.9888 177.128 36.6012 175.061 36.6012C172.994 36.6012 171.037 36.9888 169.192 37.764C167.383 38.5023 165.795 39.5913 164.43 41.031C163.101 42.4338 162.049 44.1318 161.273 46.1252C160.498 48.0817 160.111 50.2782 160.111 52.7146C160.111 55.0033 160.498 57.1259 161.273 59.0824C162.049 61.0389 163.101 62.737 164.43 64.1767C165.795 65.6163 167.383 66.7607 169.192 67.6098C171.037 68.4219 172.994 68.8279 175.061 68.8279C177.128 68.8279 179.066 68.4403 180.875 67.6651C182.721 66.8899 184.327 65.8009 185.693 64.3982C187.058 62.9954 188.129 61.2973 188.904 59.3039C189.716 57.3105 190.122 55.114 190.122 52.7146Z" fill="#FF8A8A"/>
<path d="M223.725 82.8926H208.608V23.5887H212.263L217.246 30.621C219.682 28.4061 222.451 26.708 225.552 25.5267C228.653 24.3085 231.864 23.6994 235.187 23.6994H248.531V38.7607H235.187C233.599 38.7607 232.104 39.056 230.702 39.6467C229.299 40.2373 228.081 41.0494 227.047 42.0831C226.013 43.1167 225.201 44.3349 224.611 45.7376C224.02 47.1404 223.725 48.6355 223.725 50.2228V82.8926Z" fill="#FF8A8A"/>
<path d="M306.664 82.8926H303.009L297.14 74.7528C295.7 76.0448 294.168 77.263 292.544 78.4074C290.956 79.5148 289.277 80.4931 287.505 81.3421C285.733 82.1543 283.906 82.8003 282.023 83.2802C280.177 83.7601 278.295 84 276.375 84C272.204 84 268.272 83.2248 264.581 81.6744C260.926 80.087 257.714 77.909 254.946 75.1404C252.214 72.3349 250.055 69.031 248.467 65.2287C246.88 61.3896 246.086 57.2182 246.086 52.7146C246.086 48.2479 246.88 44.0949 248.467 40.2558C250.055 36.4166 252.214 33.0943 254.946 30.2887C257.714 27.4832 260.926 25.2868 264.581 23.6994C268.272 22.1121 272.204 21.3184 276.375 21.3184C277.704 21.3184 279.07 21.4291 280.473 21.6506C281.912 21.8721 283.297 22.2413 284.625 22.7581C285.991 23.238 287.265 23.884 288.446 24.6961C289.627 25.5082 290.624 26.5049 291.436 27.6862V0H306.664V82.8926ZM291.436 52.7146C291.436 50.6473 291.03 48.6539 290.218 46.7343C289.443 44.7779 288.372 43.0613 287.006 41.5847C285.641 40.0712 284.035 38.8715 282.189 37.9855C280.38 37.0626 278.442 36.6012 276.375 36.6012C274.308 36.6012 272.351 36.9703 270.505 37.7086C268.697 38.4469 267.109 39.5175 265.743 40.9202C264.414 42.2861 263.362 43.9657 262.587 45.9591C261.812 47.9525 261.424 50.2044 261.424 52.7146C261.424 54.8926 261.812 56.9598 262.587 58.9163C263.362 60.8728 264.414 62.5893 265.743 64.0659C267.109 65.5425 268.697 66.7053 270.505 67.5544C272.351 68.4034 274.308 68.8279 276.375 68.8279C278.442 68.8279 280.38 68.385 282.189 67.499C284.035 66.5761 285.641 65.3764 287.006 63.8998C288.372 62.3863 289.443 60.6697 290.218 58.7502C291.03 56.7937 291.436 54.7818 291.436 52.7146Z" fill="#FF8A8A"/>
<path d="M328.25 82.8926H313.133V0H328.25V26.1912C330.059 24.8253 331.923 23.8655 333.843 23.3118C335.762 22.7212 337.719 22.4258 339.712 22.4258C343.367 22.4258 346.8 23.1272 350.011 24.53C353.223 25.8958 356.01 27.797 358.373 30.2334C360.772 32.6328 362.655 35.4568 364.021 38.7053C365.423 41.9169 366.125 45.35 366.125 49.0046V82.8926H350.897V49.0046H351.008C351.008 47.4542 350.713 45.996 350.122 44.6302C349.532 43.2274 348.719 42.0092 347.686 40.9756C346.652 39.942 345.452 39.1299 344.087 38.5392C342.721 37.9486 341.263 37.6533 339.712 37.6533C338.125 37.6533 336.63 37.9486 335.227 38.5392C333.824 39.1299 332.606 39.942 331.572 40.9756C330.539 42.0092 329.727 43.2274 329.136 44.6302C328.545 45.996 328.25 47.4542 328.25 49.0046V82.8926Z" fill="#FF8A8A"/>
<path d="M429.13 52.7146C429.13 57.1444 428.336 61.2788 426.749 65.118C425.161 68.9202 423.002 72.2241 420.27 75.0297C417.539 77.7983 414.327 79.9947 410.635 81.619C406.981 83.2063 403.049 84 398.841 84C394.67 84 390.738 83.2063 387.047 81.619C383.392 79.9947 380.181 77.7983 377.412 75.0297C374.68 72.2241 372.521 68.9202 370.933 65.118C369.346 61.2788 368.552 57.1444 368.552 52.7146C368.552 48.2109 369.346 44.0396 370.933 40.2004C372.521 36.3612 374.68 33.0574 377.412 30.2887C380.181 27.4832 383.392 25.2868 387.047 23.6994C390.738 22.1121 394.67 21.3184 398.841 21.3184C403.049 21.3184 406.981 22.0751 410.635 23.5887C414.327 25.0653 417.539 27.1879 420.27 29.9565C423.002 32.6882 425.161 35.9921 426.749 39.8682C428.336 43.7073 429.13 47.9895 429.13 52.7146ZM413.902 52.7146C413.902 50.2782 413.496 48.0817 412.684 46.1252C411.909 44.1318 410.838 42.4338 409.473 41.031C408.107 39.5913 406.501 38.5023 404.655 37.764C402.846 36.9888 400.908 36.6012 398.841 36.6012C396.774 36.6012 394.817 36.9888 392.972 37.764C391.163 38.5023 389.575 39.5913 388.21 41.031C386.881 42.4338 385.829 44.1318 385.053 46.1252C384.278 48.0817 383.891 50.2782 383.891 52.7146C383.891 55.0033 384.278 57.1259 385.053 59.0824C385.829 61.0389 386.881 62.737 388.21 64.1767C389.575 65.6163 391.163 66.7607 392.972 67.6098C394.817 68.4219 396.774 68.8279 398.841 68.8279C400.908 68.8279 402.846 68.4403 404.655 67.6651C406.501 66.8899 408.107 65.8009 409.473 64.3982C410.838 62.9954 411.909 61.2973 412.684 59.3039C413.496 57.3105 413.902 55.114 413.902 52.7146Z" fill="#FF8A8A"/>
<path d="M507.251 61.4634C507.251 64.5643 506.661 67.499 505.48 70.2676C504.298 72.9993 502.674 75.3804 500.607 77.4107C498.576 79.441 496.177 81.0468 493.408 82.2281C490.677 83.4094 487.742 84 484.604 84C481.799 84 479.104 83.5201 476.52 82.5603C473.936 81.5636 471.592 80.1239 469.487 78.2413C467.42 80.1239 465.095 81.5636 462.511 82.5603C459.963 83.5201 457.269 84 454.426 84C451.288 84 448.354 83.4094 445.622 82.2281C442.89 81.0468 440.491 79.441 438.424 77.4107C436.393 75.3804 434.787 72.9993 433.606 70.2676C432.425 67.499 431.834 64.5643 431.834 61.4634V23.6994H446.951V61.4634C446.951 62.497 447.135 63.4753 447.505 64.3982C447.911 65.2841 448.446 66.0778 449.11 66.7792C449.812 67.4436 450.605 67.9789 451.491 68.385C452.414 68.7541 453.393 68.9387 454.426 68.9387C455.46 68.9387 456.438 68.7541 457.361 68.385C458.284 67.9789 459.096 67.4436 459.797 66.7792C460.499 66.0778 461.034 65.2841 461.403 64.3982C461.809 63.4753 462.012 62.497 462.012 61.4634V23.6994H477.073V61.4634C477.073 62.497 477.277 63.4753 477.683 64.3982C478.089 65.2841 478.624 66.0778 479.288 66.7792C479.99 67.4436 480.783 67.9789 481.669 68.385C482.592 68.7541 483.571 68.9387 484.604 68.9387C485.638 68.9387 486.616 68.7541 487.539 68.385C488.462 67.9789 489.255 67.4436 489.92 66.7792C490.621 66.0778 491.175 65.2841 491.581 64.3982C491.987 63.4753 492.19 62.497 492.19 61.4634V23.6994H507.251V61.4634Z" fill="#FF8A8A"/>
<path d="M528.339 82.8926H513.112V0H528.339V82.8926Z" fill="#FF8A8A"/>
<path d="M558.398 68.385C558.989 68.5695 559.579 68.6987 560.17 68.7726C560.76 68.8095 561.351 68.8279 561.942 68.8279C563.418 68.8279 564.84 68.6249 566.205 68.2189C567.571 67.8128 568.845 67.2406 570.026 66.5023C571.244 65.7271 572.315 64.8042 573.238 63.7337C574.197 62.6262 574.973 61.408 575.563 60.0791L586.638 71.209C585.235 73.2024 583.611 74.9927 581.765 76.5801C579.956 78.1674 577.981 79.5148 575.84 80.6223C573.736 81.7297 571.503 82.5603 569.14 83.114C566.814 83.7047 564.415 84 561.942 84C557.77 84 553.839 83.2248 550.147 81.6744C546.493 80.1239 543.281 77.9644 540.513 75.1958C537.781 72.4272 535.621 69.1417 534.034 65.3395C532.447 61.5003 531.653 57.292 531.653 52.7146C531.653 48.0264 532.447 43.7442 534.034 39.8682C535.621 35.9921 537.781 32.6882 540.513 29.9565C543.281 27.2248 546.493 25.1022 550.147 23.5887C553.839 22.0751 557.77 21.3184 561.942 21.3184C564.415 21.3184 566.833 21.6137 569.196 22.2044C571.558 22.795 573.791 23.644 575.896 24.7515C578.037 25.8589 580.03 27.2248 581.876 28.849C583.722 30.4364 585.346 32.2268 586.749 34.2202L558.398 68.385ZM566.15 37.2103C565.449 36.9519 564.747 36.7858 564.046 36.7119C563.381 36.6381 562.68 36.6012 561.942 36.6012C559.874 36.6012 557.918 36.9888 556.072 37.764C554.263 38.5023 552.676 39.5728 551.31 40.9756C549.981 42.3784 548.929 44.0765 548.154 46.0699C547.379 48.0264 546.991 50.2413 546.991 52.7146C546.991 53.2683 547.01 53.8958 547.047 54.5972C547.12 55.2986 547.213 56.0185 547.323 56.7568C547.471 57.4581 547.637 58.1411 547.822 58.8055C548.006 59.47 548.246 60.0606 548.542 60.5775L566.15 37.2103Z" fill="#FF8A8A"/>
<path d="M604.404 82.8926H589.287V23.5887H592.941L597.925 30.621C600.361 28.4061 603.13 26.708 606.231 25.5267C609.332 24.3085 612.543 23.6994 615.866 23.6994H629.21V38.7607H615.866C614.278 38.7607 612.783 39.056 611.38 39.6467C609.978 40.2373 608.759 41.0494 607.726 42.0831C606.692 43.1167 605.88 44.3349 605.289 45.7376C604.699 47.1404 604.404 48.6355 604.404 50.2228V82.8926Z" fill="#FF8A8A"/>
</svg>
